<svg width="54" height="48" viewBox="0 0 54 48" fill="none" xmlns="http://www.w3.org/2000/svg">
<path d="M21.75 22.2375C24.7313 20.8125 26.2875 18.6562 26.2875 15.3C26.2875 8.68123 21.3563 7.06873 15.6656 7.06873H0V40.2937H16.1063C22.1438 40.2937 27.8156 37.3968 27.8156 30.6468C27.8156 26.475 25.8375 23.3906 21.75 22.2375ZM7.30313 12.7406H14.1562C16.7906 12.7406 19.1625 13.4812 19.1625 16.5375C19.1625 19.3593 17.3156 20.4937 14.7094 20.4937H7.30313V12.7406ZM15.1125 34.65H7.30313V25.5H15.2625C18.4781 25.5 20.5125 26.8406 20.5125 30.2437C20.5125 33.6 18.0844 34.65 15.1125 34.65ZM48.7219 12.0843H35.25V8.81248H48.7219V12.0843ZM54 28.6125C54 21.4969 49.8375 15.5625 42.2906 15.5625C34.9594 15.5625 29.9812 21.075 29.9812 28.2937C29.9812 35.7843 34.6969 40.9218 42.2906 40.9218C48.0375 40.9218 51.7594 38.3344 53.55 32.8312H47.7188C47.0906 34.8843 44.5031 35.9718 42.4969 35.9718C38.625 35.9718 36.5906 33.7031 36.5906 29.85H53.9438C53.9719 29.4562 54 29.0344 54 28.6125ZM36.6 25.6875C36.8156 22.5281 38.9156 20.55 42.0844 20.55C45.4031 20.55 47.0719 22.5 47.3531 25.6875H36.6Z" fill="#2E2E2E"/>
</svg>
