<svg width="54" height="48" viewBox="0 0 54 48" fill="none" xmlns="http://www.w3.org/2000/svg">
<path d="M21.75 22.2371C24.7313 20.8121 26.2875 18.6559 26.2875 15.2996C26.2875 8.68086 21.3563 7.06836 15.6656 7.06836H0V40.2934H16.1063C22.1438 40.2934 27.8156 37.3965 27.8156 30.6465C27.8156 26.4746 25.8375 23.3902 21.75 22.2371ZM7.30313 12.7402H14.1562C16.7906 12.7402 19.1625 13.4809 19.1625 16.5371C19.1625 19.359 17.3156 20.4934 14.7094 20.4934H7.30313V12.7402ZM15.1125 34.6496H7.30313V25.4996H15.2625C18.4781 25.4996 20.5125 26.8402 20.5125 30.2434C20.5125 33.5996 18.0844 34.6496 15.1125 34.6496ZM48.7219 12.084H35.25V8.81211H48.7219V12.084ZM54 28.6121C54 21.4965 49.8375 15.5621 42.2906 15.5621C34.9594 15.5621 29.9812 21.0746 29.9812 28.2934C29.9812 35.784 34.6969 40.9215 42.2906 40.9215C48.0375 40.9215 51.7594 38.334 53.55 32.8309H47.7188C47.0906 34.884 44.5031 35.9715 42.4969 35.9715C38.625 35.9715 36.5906 33.7027 36.5906 29.8496H53.9438C53.9719 29.4559 54 29.034 54 28.6121ZM36.6 25.6871C36.8156 22.5277 38.9156 20.5496 42.0844 20.5496C45.4031 20.5496 47.0719 22.4996 47.3531 25.6871H36.6Z" fill="#2E2E2E"/>
</svg>
