<svg width="54" height="48" viewBox="0 0 54 48" fill="none" xmlns="http://www.w3.org/2000/svg">
<path d="M21.75 22.2376C24.7313 20.8126 26.2875 18.6563 26.2875 15.3001C26.2875 8.68135 21.3563 7.06885 15.6656 7.06885H0V40.2938H16.1063C22.1438 40.2938 27.8156 37.397 27.8156 30.647C27.8156 26.4751 25.8375 23.3907 21.75 22.2376ZM7.30313 12.7407H14.1562C16.7906 12.7407 19.1625 13.4813 19.1625 16.5376C19.1625 19.3595 17.3156 20.4938 14.7094 20.4938H7.30313V12.7407ZM15.1125 34.6501H7.30313V25.5001H15.2625C18.4781 25.5001 20.5125 26.8407 20.5125 30.2438C20.5125 33.6001 18.0844 34.6501 15.1125 34.6501ZM48.7219 12.0845H35.25V8.8126H48.7219V12.0845ZM54 28.6126C54 21.497 49.8375 15.5626 42.2906 15.5626C34.9594 15.5626 29.9812 21.0751 29.9812 28.2938C29.9812 35.7845 34.6969 40.922 42.2906 40.922C48.0375 40.922 51.7594 38.3345 53.55 32.8313H47.7188C47.0906 34.8845 44.5031 35.972 42.4969 35.972C38.625 35.972 36.5906 33.7032 36.5906 29.8501H53.9438C53.9719 29.4563 54 29.0345 54 28.6126ZM36.6 25.6876C36.8156 22.5282 38.9156 20.5501 42.0844 20.5501C45.4031 20.5501 47.0719 22.5001 47.3531 25.6876H36.6Z" fill="#2E2E2E"/>
</svg>
