<svg width="41" height="48" viewBox="0 0 41 48" fill="none" xmlns="http://www.w3.org/2000/svg">
<g clip-path="url(#clip0_164_5)">
<path d="M20.5092 13.2188C14.6886 13.2188 9.99378 18.0282 9.99378 23.9907C9.99378 29.9532 14.6886 34.7625 20.5092 34.7625C26.3297 34.7625 31.0246 29.9532 31.0246 23.9907C31.0246 18.0282 26.3297 13.2188 20.5092 13.2188ZM20.5092 30.9938C16.7478 30.9938 13.6728 27.8532 13.6728 23.9907C13.6728 20.1282 16.7386 16.9875 20.5092 16.9875C24.2797 16.9875 27.3456 20.1282 27.3456 23.9907C27.3456 27.8532 24.2706 30.9938 20.5092 30.9938ZM33.9074 12.7782C33.9074 14.175 32.8092 15.2907 31.4547 15.2907C30.0911 15.2907 29.002 14.1657 29.002 12.7782C29.002 11.3907 30.1003 10.2657 31.4547 10.2657C32.8092 10.2657 33.9074 11.3907 33.9074 12.7782ZM40.8719 15.3282C40.7163 11.9625 39.9659 8.9813 37.559 6.52505C35.1612 4.0688 32.2509 3.30005 28.9654 3.1313C25.5793 2.93442 15.4299 2.93442 12.0438 3.1313C8.76744 3.29067 5.85717 4.05942 3.45025 6.51567C1.04333 8.97192 0.302037 11.9532 0.137305 15.3188C-0.0548828 18.7875 -0.0548828 29.1844 0.137305 32.6532C0.292885 36.0188 1.04333 39 3.45025 41.4563C5.85717 43.9125 8.75829 44.6813 12.0438 44.85C15.4299 45.0469 25.5793 45.0469 28.9654 44.85C32.2509 44.6907 35.1612 43.9219 37.559 41.4563C39.9567 39 40.7072 36.0188 40.8719 32.6532C41.0641 29.1844 41.0641 18.7969 40.8719 15.3282ZM36.4973 36.375C35.7835 38.2125 34.4016 39.6282 32.5987 40.3688C29.8989 41.4657 23.4927 41.2125 20.5092 41.2125C17.5257 41.2125 11.1103 41.4563 8.41967 40.3688C6.62592 39.6375 5.244 38.2219 4.52101 36.375C3.45025 33.6094 3.69735 27.0469 3.69735 23.9907C3.69735 20.9344 3.4594 14.3625 4.52101 11.6063C5.23485 9.7688 6.61677 8.35317 8.41967 7.61255C11.1194 6.51567 17.5257 6.7688 20.5092 6.7688C23.4927 6.7688 29.9081 6.52505 32.5987 7.61255C34.3924 8.3438 35.7744 9.75942 36.4973 11.6063C37.5681 14.3719 37.321 20.9344 37.321 23.9907C37.321 27.0469 37.5681 33.6188 36.4973 36.375Z" fill="#2E2E2E"/>
</g>
<defs>
<clipPath id="clip0_164_5">
<rect width="41" height="48" fill="white"/>
</clipPath>
</defs>
</svg>
