<svg width="41" height="48" viewBox="0 0 41 48" fill="none" xmlns="http://www.w3.org/2000/svg">
<g clip-path="url(#clip0_235_11)">
<path d="M20.5092 13.2187C14.6886 13.2187 9.99378 18.0281 9.99378 23.9906C9.99378 29.9531 14.6886 34.7625 20.5092 34.7625C26.3297 34.7625 31.0246 29.9531 31.0246 23.9906C31.0246 18.0281 26.3297 13.2187 20.5092 13.2187ZM20.5092 30.9937C16.7478 30.9937 13.6728 27.8531 13.6728 23.9906C13.6728 20.1281 16.7386 16.9875 20.5092 16.9875C24.2797 16.9875 27.3456 20.1281 27.3456 23.9906C27.3456 27.8531 24.2706 30.9937 20.5092 30.9937ZM33.9074 12.7781C33.9074 14.175 32.8092 15.2906 31.4547 15.2906C30.0911 15.2906 29.002 14.1656 29.002 12.7781C29.002 11.3906 30.1003 10.2656 31.4547 10.2656C32.8092 10.2656 33.9074 11.3906 33.9074 12.7781ZM40.8719 15.3281C40.7163 11.9625 39.9659 8.98124 37.559 6.52499C35.1612 4.06874 32.2509 3.29999 28.9654 3.13124C25.5793 2.93436 15.4299 2.93436 12.0438 3.13124C8.76744 3.29061 5.85717 4.05936 3.45025 6.51561C1.04333 8.97186 0.302037 11.9531 0.137305 15.3187C-0.0548828 18.7875 -0.0548828 29.1844 0.137305 32.6531C0.292885 36.0187 1.04333 39 3.45025 41.4562C5.85717 43.9125 8.75829 44.6812 12.0438 44.85C15.4299 45.0469 25.5793 45.0469 28.9654 44.85C32.2509 44.6906 35.1612 43.9219 37.559 41.4562C39.9567 39 40.7072 36.0187 40.8719 32.6531C41.0641 29.1844 41.0641 18.7969 40.8719 15.3281ZM36.4973 36.375C35.7835 38.2125 34.4016 39.6281 32.5987 40.3687C29.8989 41.4656 23.4927 41.2125 20.5092 41.2125C17.5257 41.2125 11.1103 41.4562 8.41967 40.3687C6.62592 39.6375 5.244 38.2219 4.52101 36.375C3.45025 33.6094 3.69735 27.0469 3.69735 23.9906C3.69735 20.9344 3.4594 14.3625 4.52101 11.6062C5.23485 9.76874 6.61677 8.35311 8.41967 7.61249C11.1194 6.51561 17.5257 6.76874 20.5092 6.76874C23.4927 6.76874 29.9081 6.52499 32.5987 7.61249C34.3924 8.34374 35.7744 9.75936 36.4973 11.6062C37.5681 14.3719 37.321 20.9344 37.321 23.9906C37.321 27.0469 37.5681 33.6187 36.4973 36.375Z" fill="#2E2E2E"/>
</g>
<defs>
<clipPath id="clip0_235_11">
<rect width="41" height="48" fill="white"/>
</clipPath>
</defs>
</svg>
