<svg width="41" height="48" viewBox="0 0 41 48" fill="none" xmlns="http://www.w3.org/2000/svg">
<g clip-path="url(#clip0_232_48)">
<path d="M20.5092 13.2186C14.6886 13.2186 9.99378 18.0279 9.99378 23.9904C9.99378 29.9529 14.6886 34.7623 20.5092 34.7623C26.3297 34.7623 31.0246 29.9529 31.0246 23.9904C31.0246 18.0279 26.3297 13.2186 20.5092 13.2186ZM20.5092 30.9936C16.7478 30.9936 13.6728 27.8529 13.6728 23.9904C13.6728 20.1279 16.7386 16.9873 20.5092 16.9873C24.2797 16.9873 27.3456 20.1279 27.3456 23.9904C27.3456 27.8529 24.2706 30.9936 20.5092 30.9936ZM33.9074 12.7779C33.9074 14.1748 32.8092 15.2904 31.4547 15.2904C30.0911 15.2904 29.002 14.1654 29.002 12.7779C29.002 11.3904 30.1003 10.2654 31.4547 10.2654C32.8092 10.2654 33.9074 11.3904 33.9074 12.7779ZM40.8719 15.3279C40.7163 11.9623 39.9659 8.98105 37.559 6.5248C35.1612 4.06855 32.2509 3.2998 28.9654 3.13105C25.5793 2.93418 15.4299 2.93418 12.0438 3.13105C8.76744 3.29043 5.85717 4.05918 3.45025 6.51543C1.04333 8.97168 0.302037 11.9529 0.137305 15.3186C-0.0548828 18.7873 -0.0548828 29.1842 0.137305 32.6529C0.292885 36.0186 1.04333 38.9998 3.45025 41.4561C5.85717 43.9123 8.75829 44.6811 12.0438 44.8498C15.4299 45.0467 25.5793 45.0467 28.9654 44.8498C32.2509 44.6904 35.1612 43.9217 37.559 41.4561C39.9567 38.9998 40.7072 36.0186 40.8719 32.6529C41.0641 29.1842 41.0641 18.7967 40.8719 15.3279ZM36.4973 36.3748C35.7835 38.2123 34.4016 39.6279 32.5987 40.3686C29.8989 41.4654 23.4927 41.2123 20.5092 41.2123C17.5257 41.2123 11.1103 41.4561 8.41967 40.3686C6.62592 39.6373 5.244 38.2217 4.52101 36.3748C3.45025 33.6092 3.69735 27.0467 3.69735 23.9904C3.69735 20.9342 3.4594 14.3623 4.52101 11.6061C5.23485 9.76855 6.61677 8.35293 8.41967 7.6123C11.1194 6.51543 17.5257 6.76855 20.5092 6.76855C23.4927 6.76855 29.9081 6.5248 32.5987 7.6123C34.3924 8.34355 35.7744 9.75918 36.4973 11.6061C37.5681 14.3717 37.321 20.9342 37.321 23.9904C37.321 27.0467 37.5681 33.6186 36.4973 36.3748Z" fill="#2E2E2E"/>
</g>
<defs>
<clipPath id="clip0_232_48">
<rect width="41" height="48" fill="white"/>
</clipPath>
</defs>
</svg>
