<svg width="43" height="51" viewBox="0 0 43 51" fill="none" xmlns="http://www.w3.org/2000/svg">
<path d="M39.9286 3.31738H3.06183C1.37254 3.31738 0 4.75659 0 6.52333V44.5779C0 46.3446 1.37254 47.7838 3.06183 47.7838H39.9286C41.6179 47.7838 43 46.3446 43 44.5779V6.52333C43 4.75659 41.6179 3.31738 39.9286 3.31738ZM12.996 41.4315H6.62277V20.2107H13.0056V41.4315H12.996ZM9.80937 17.3124C7.76496 17.3124 6.11406 15.5953 6.11406 13.4911C6.11406 11.3868 7.76496 9.66973 9.80937 9.66973C11.8442 9.66973 13.5047 11.3868 13.5047 13.4911C13.5047 15.6052 11.8538 17.3124 9.80937 17.3124ZM36.8859 41.4315H30.5127V31.1089C30.5127 28.6474 30.4647 25.4811 27.2013 25.4811C23.8804 25.4811 23.3717 28.161 23.3717 30.9302V41.4315H16.9984V20.2107H23.1125V23.1089H23.1989C24.0531 21.4414 26.1359 19.6846 29.2362 19.6846C35.6862 19.6846 36.8859 24.0816 36.8859 29.7987V41.4315Z" fill="#2E2E2E"/>
</svg>
