<svg width="43" height="51" viewBox="0 0 43 51" fill="none" xmlns="http://www.w3.org/2000/svg">
<path d="M39.9286 3.31775H3.06183C1.37254 3.31775 0 4.75695 0 6.5237V44.5782C0 46.345 1.37254 47.7842 3.06183 47.7842H39.9286C41.6179 47.7842 43 46.345 43 44.5782V6.5237C43 4.75695 41.6179 3.31775 39.9286 3.31775ZM12.996 41.4318H6.62277V20.211H13.0056V41.4318H12.996ZM9.80937 17.3128C7.76496 17.3128 6.11406 15.5956 6.11406 13.4914C6.11406 11.3872 7.76496 9.6701 9.80937 9.6701C11.8442 9.6701 13.5047 11.3872 13.5047 13.4914C13.5047 15.6056 11.8538 17.3128 9.80937 17.3128ZM36.8859 41.4318H30.5127V31.1093C30.5127 28.6477 30.4647 25.4815 27.2013 25.4815C23.8804 25.4815 23.3717 28.1614 23.3717 30.9306V41.4318H16.9984V20.211H23.1125V23.1093H23.1989C24.0531 21.4418 26.1359 19.685 29.2362 19.685C35.6862 19.685 36.8859 24.082 36.8859 29.7991V41.4318Z" fill="#2E2E2E"/>
</svg>
