<svg width="43" height="51" viewBox="0 0 43 51" fill="none" xmlns="http://www.w3.org/2000/svg">
<path d="M39.9286 3.31787H3.06183C1.37254 3.31787 0 4.75708 0 6.52382V44.5784C0 46.3451 1.37254 47.7843 3.06183 47.7843H39.9286C41.6179 47.7843 43 46.3451 43 44.5784V6.52382C43 4.75708 41.6179 3.31787 39.9286 3.31787ZM12.996 41.432H6.62277V20.2111H13.0056V41.432H12.996ZM9.80937 17.3129C7.76496 17.3129 6.11406 15.5958 6.11406 13.4916C6.11406 11.3873 7.76496 9.67022 9.80937 9.67022C11.8442 9.67022 13.5047 11.3873 13.5047 13.4916C13.5047 15.6057 11.8538 17.3129 9.80937 17.3129ZM36.8859 41.432H30.5127V31.1094C30.5127 28.6479 30.4647 25.4816 27.2013 25.4816C23.8804 25.4816 23.3717 28.1615 23.3717 30.9307V41.432H16.9984V20.2111H23.1125V23.1094H23.1989C24.0531 21.4419 26.1359 19.6851 29.2362 19.6851C35.6862 19.6851 36.8859 24.0821 36.8859 29.7992V41.432Z" fill="#2E2E2E"/>
</svg>
